<?xml version="1.0" encoding="utf-8"?>
<!-- Generator: Adobe Illustrator 18.1.1, SVG Export Plug-In . SVG Version: 6.00 Build 0)  -->
<svg version="1.1" xmlns="http://www.w3.org/2000/svg" xmlns:xlink="http://www.w3.org/1999/xlink" x="0px" y="0px"
	 viewBox="0 0 60 60" enable-background="new 0 0 60 60" xml:space="preserve">
<g id="Layer_3">
</g>
<g id="Layer_1">
	<g>
		<rect x="0" fill="none" width="60" height="60"/>
		<g>
			<path d="M57.4,29.6c0,1.9-1.5,3.4-3.4,3.4h-0.4l-3.1,17.7c-0.3,1.6-1.7,2.8-3.4,2.8H12.9c-1.7,0-3.1-1.2-3.4-2.8L6.4,33.1H6
				c-1.9,0-3.4-1.5-3.4-3.4s1.5-3.4,3.4-3.4h48C55.9,26.2,57.4,27.7,57.4,29.6z M12.8,24.5H9.3L12,12.7c0.7-3.1,3.5-5.3,6.7-5.3h4.5
				c0-0.9,0.8-1.7,1.7-1.7h10.3c0.9,0,1.7,0.8,1.7,1.7h4.5c3.2,0,6,2.2,6.7,5.3l2.7,11.8h-3.5l-2.5-11c-0.4-1.6-1.7-2.7-3.3-2.7
				h-4.5c0,0.9-0.8,1.7-1.7,1.7H24.9c-0.9,0-1.7-0.8-1.7-1.7h-4.5c-1.6,0-3,1.1-3.3,2.7L12.8,24.5z M17.1,45.8l-0.9-11.1
				c-0.1-0.9-0.9-1.7-1.8-1.6c-0.9,0.1-1.7,0.9-1.6,1.8l0.9,11.1c0.1,0.9,0.8,1.6,1.7,1.6c0.1,0,0.1,0,0.1,0
				C16.5,47.6,17.2,46.7,17.1,45.8z M26.6,34.8c0-0.9-0.8-1.7-1.7-1.7s-1.7,0.8-1.7,1.7v11.1c0,0.9,0.8,1.7,1.7,1.7s1.7-0.8,1.7-1.7
				V34.8z M36.9,34.8c0-0.9-0.8-1.7-1.7-1.7s-1.7,0.8-1.7,1.7v11.1c0,0.9,0.8,1.7,1.7,1.7s1.7-0.8,1.7-1.7V34.8z M47.1,34.9
				c0.1-0.9-0.6-1.8-1.6-1.8c-0.9-0.1-1.8,0.6-1.8,1.6l-0.9,11.1c-0.1,0.9,0.6,1.8,1.6,1.8c0.1,0,0.1,0,0.1,0c0.9,0,1.6-0.7,1.7-1.6
				L47.1,34.9z"/>
		</g>
	</g>
</g>
<g id="Grid" display="none">
</g>
</svg>
