<?xml version="1.0" encoding="utf-8"?>
<!-- Generator: Adobe Illustrator 18.1.1, SVG Export Plug-In . SVG Version: 6.00 Build 0)  -->
<svg version="1.1" xmlns="http://www.w3.org/2000/svg" xmlns:xlink="http://www.w3.org/1999/xlink" x="0px" y="0px"
	 viewBox="0 0 60 60" enable-background="new 0 0 60 60" xml:space="preserve">
<g id="Layer_3">
</g>
<g id="Layer_1">
	<g>
		<rect x="0" fill="none" width="60" height="60"/>
		<g>
			<path d="M52.3,31.4c0,0.9-0.7,1.6-1.5,1.7l-28,3.3c0.1,0.6,0.3,1.2,0.3,1.9c0,0.6-0.4,1.2-0.6,1.7h24.6c0.9,0,1.7,0.8,1.7,1.7
				s-0.8,1.7-1.7,1.7H19.7c-0.9,0-1.7-0.8-1.7-1.7c0-0.8,1.2-2.8,1.6-3.7l-4.7-22H9.4c-0.9,0-1.7-0.8-1.7-1.7s0.8-1.7,1.7-1.7h6.9
				c1.8,0,1.8,2.1,2.1,3.4h32.2c0.9,0,1.7,0.8,1.7,1.7V31.4z M21.4,50.2c-1.9,0-3.4-1.6-3.4-3.4s1.6-3.4,3.4-3.4
				c1.9,0,3.4,1.6,3.4,3.4S23.3,50.2,21.4,50.2z M45.4,50.2c-1.9,0-3.4-1.6-3.4-3.4s1.6-3.4,3.4-3.4s3.4,1.6,3.4,3.4
				S47.3,50.2,45.4,50.2z"/>
		</g>
	</g>
</g>
<g id="Grid" display="none">
</g>
</svg>
