<?xml version="1.0" encoding="utf-8"?>
<!-- Generator: Adobe Illustrator 21.0.0, SVG Export Plug-In . SVG Version: 6.00 Build 0)  -->
<svg version="1.1" xmlns="http://www.w3.org/2000/svg" xmlns:xlink="http://www.w3.org/1999/xlink" x="0px" y="0px"
	 viewBox="0 0 19.4 19.4" style="enable-background:new 0 0 19.4 19.4;" xml:space="preserve">
<style type="text/css">
	.st0{fill:#4F4F4F;}
	.st1{fill:#303030;}
	.st2{fill:#6D6D6D;}
	.st3{fill:none;stroke:#303030;stroke-miterlimit:10;}
	.st4{fill:#3C3C3C;}
	.st5{fill:#FAFAFA;}
	.st6{fill:#F7F7F7;}
	.st7{fill:#E0E0E0;}
	.st8{fill:#FFFFFF;stroke:#F2F2F2;stroke-miterlimit:10;}
	.st9{fill:none;}
	.st10{fill:#231F20;}
	.st11{fill:#FFFFFF;}
	.st12{fill:#A6DDC4;}
	.st13{fill:#383838;}
	.st14{fill:none;stroke:#FF4848;stroke-miterlimit:10;}
	.st15{fill:#42A842;}
	.st16{fill:none;stroke:#4C4C4C;stroke-width:2;stroke-miterlimit:10;}
	.st17{fill:#CECECE;}
	.st18{fill:none;stroke:#F4F4F4;stroke-miterlimit:10;}
	.st19{fill:#F4F4F4;stroke:#F4F4F4;stroke-miterlimit:10;}
	.st20{fill:none;stroke:#4C4C4C;stroke-width:2.5;stroke-miterlimit:10;}
	.st21{fill:#4C4C4C;stroke:#4C4C4C;stroke-width:0.5;stroke-miterlimit:10;}
	.st22{fill:none;stroke:#FF4893;stroke-miterlimit:10;}
	.st23{fill:#FF4893;}
	.st24{fill:#E2E2E2;}
	.st25{fill:#F9F9F9;stroke:#848484;stroke-miterlimit:10;}
	.st26{fill:#848484;}
	.st27{fill:none;stroke:#6BC96B;stroke-width:2;stroke-miterlimit:10;}
	.st28{fill:#8C8C8C;}
	.st29{fill:none;stroke:#4C4C4C;stroke-width:3;stroke-miterlimit:10;}
	.st30{fill:none;stroke:#4F4F4F;stroke-width:2;stroke-miterlimit:10;}
	.st31{fill:#A5A5A5;}
	.st32{fill:none;stroke:#3C3C3C;stroke-miterlimit:10;}
	.st33{fill:none;stroke:#AFAFAF;stroke-miterlimit:10;}
	.st34{fill:#EAEAEA;}
	.st35{fill:none;stroke:#FF4848;stroke-width:0.75;stroke-miterlimit:10;}
	.st36{fill:none;stroke:#D3D3D3;stroke-miterlimit:10;}
	.st37{fill:#BFBFBF;}
	.st38{fill:#EFEFEF;}
	.st39{fill:#FCFCFC;}
	.st40{fill:none;stroke:#42A842;stroke-miterlimit:10;}
	.st41{fill:#B5B5B5;}
	.st42{clip-path:url(#SVGID_2_);}
	.st43{fill-rule:evenodd;clip-rule:evenodd;fill:#848484;}
	.st44{fill:none;stroke:#D1D1D1;stroke-miterlimit:10;}
	.st45{fill:#F2F2F2;}
	.st46{fill:#A0A0A0;}
	.st47{display:none;}
	.st48{display:inline;}
	.st49{display:inline;opacity:0.26;}
	.st50{display:inline;opacity:0.41;}
</style>
<g id="Layer_3">
</g>
<g id="Layer_1">
	<g>
		<rect x="-1195.4" y="-63.1" class="st11" width="1279.6" height="211.4"/>
		<path class="st43" d="M2.5,0h14.4c1.4,0,2.5,1.1,2.5,2.5v14.4c0,1.4-1.1,2.5-2.5,2.5H2.5c-1.4,0-2.5-1.1-2.5-2.5V2.5
			C0,1.1,1.1,0,2.5,0L2.5,0z M14.1,2.2c-0.5,0-0.9,0.4-0.9,0.9v2.1c0,0.5,0.4,0.9,0.9,0.9h2.2c0.5,0,0.9-0.4,0.9-0.9V3
			c0-0.5-0.4-0.9-0.9-0.9H14.1L14.1,2.2z M17.2,8.2h-1.7c0.2,0.5,0.2,1.1,0.2,1.7c0,3.2-2.7,5.8-6,5.8c-3.3,0-6-2.6-6-5.8
			c0-0.6,0.1-1.1,0.3-1.7H2.1v8.2c0,0.4,0.3,0.8,0.8,0.8h13.5c0.4,0,0.8-0.3,0.8-0.8V8.2L17.2,8.2z M9.7,5.9c-2.1,0-3.9,1.7-3.9,3.8
			c0,2.1,1.7,3.8,3.9,3.8c2.1,0,3.9-1.7,3.9-3.8C13.6,7.6,11.8,5.9,9.7,5.9z"/>
	</g>
</g>
<g id="Grid" class="st47">
</g>
</svg>
