<?xml version="1.0" encoding="utf-8"?>
<!-- Generator: Adobe Illustrator 18.1.1, SVG Export Plug-In . SVG Version: 6.00 Build 0)  -->
<svg version="1.1" xmlns="http://www.w3.org/2000/svg" xmlns:xlink="http://www.w3.org/1999/xlink" x="0px" y="0px"
	 viewBox="0 0 132.9 72" enable-background="new 0 0 132.9 72" xml:space="preserve">
<g id="Layer_3">
</g>
<g id="Layer_1">
	<g>
		<g>
			<path fill="#303030" d="M78.9,43.5c-2.3,0-4.3-0.4-6-2l1.9-1.9c1.1,1.2,2.7,1.5,4.1,1.5c1.7,0,3.1-0.6,3.1-2c0-1-0.5-1.6-1.9-1.7
				l-2.3-0.2c-2.7-0.2-4.2-1.4-4.2-3.9c0-2.8,2.4-4.3,5.3-4.3c2.1,0,3.9,0.4,5.3,1.6l-1.8,1.8c-0.9-0.8-2.2-1-3.5-1
				c-1.7,0-2.6,0.8-2.6,1.8c0,0.8,0.4,1.5,2,1.6l2.2,0.2c2.7,0.2,4.2,1.5,4.2,4C84.8,41.9,82.3,43.5,78.9,43.5z"/>
			<path fill="#303030" d="M97.5,43.3v-8.7c0-2.2-1.3-3.1-2.9-3.1c-1.6,0-2.9,1-2.9,3.1v8.7H89V23.3h2.9v7.2c1-1.1,2.3-1.6,3.7-1.6
				c3.2,0,4.9,2.1,4.9,5.2v9.2H97.5z"/>
			<path fill="#303030" d="M115,41.8c-0.9,1-2.3,1.7-4.3,1.7c-1.9,0-3.3-0.7-4.2-1.7c-1.3-1.4-1.7-3.2-1.7-5.6
				c0-2.4,0.3-4.2,1.7-5.6c0.9-1,2.3-1.7,4.2-1.7c1.9,0,3.3,0.7,4.3,1.7c1.3,1.4,1.7,3.2,1.7,5.6C116.7,38.6,116.3,40.4,115,41.8z
				 M112.8,32.3c-0.5-0.5-1.3-0.8-2.1-0.8c-0.8,0-1.5,0.3-2.1,0.8c-0.9,0.9-1,2.4-1,3.9c0,1.5,0.1,3,1,3.9c0.5,0.5,1.2,0.8,2.1,0.8
				c0.8,0,1.6-0.3,2.1-0.8c0.9-0.9,1-2.4,1-3.9C113.8,34.6,113.7,33.1,112.8,32.3z"/>
			<path fill="#303030" d="M131.3,42.2c-0.8,0.8-2,1.3-3.4,1.3c-1.5,0-2.7-0.4-3.7-1.6V49h-2.9V29.1h2.8v1.5
				c1.1-1.3,2.2-1.7,3.8-1.7c1.4,0,2.7,0.5,3.5,1.3c1.4,1.4,1.6,3.8,1.6,6C132.9,38.3,132.7,40.8,131.3,42.2z M127.1,31.5
				c-2.6,0-3,2.2-3,4.7c0,2.5,0.4,4.7,3,4.7c2.6,0,2.9-2.2,2.9-4.7C130,33.7,129.6,31.5,127.1,31.5z"/>
		</g>
		<g>
			<path fill="none" d="M23.5,42.3c-0.1-0.1-0.2-0.2-0.2-0.2c0,0.1,0,0.2,0,0.2C23.4,42.3,23.4,42.4,23.5,42.3z"/>
			<path fill="none" d="M31,44.2c0.1,0,0.1-0.1,0.2-0.2C31.1,44,31,44.1,31,44.2z"/>
			<path fill="none" d="M31.6,44.9c0.1-0.1,0.3-0.1,0.2-0.3C31.7,44.8,31.6,44.9,31.6,44.9z"/>
			<path fill="none" d="M23.1,42.2c0-0.2-0.1-0.6-0.2-0.2C22.9,42.1,23,42.2,23.1,42.2z"/>
			<path fill="none" d="M33.1,29.5c-0.2,0.2-0.3,0.3-0.4,0.5C32.9,29.9,33,29.7,33.1,29.5z"/>
			<path fill="none" d="M30.2,41.8c-0.3,0.4-0.7,0.9-0.8,1.4C29.6,42.6,29.9,42.2,30.2,41.8z"/>
			<path fill="none" d="M29.4,37.1c-0.1,0.1-0.2,0.3-0.2,0.4C29.3,37.4,29.5,37.3,29.4,37.1z"/>
			<path fill="none" d="M31.5,27.8c-0.3,0.3-0.6,0.5-0.8,0.8c0.2-0.1,0.5-0.2,0.7-0.4C31.4,28.1,31.6,27.7,31.5,27.8z"/>
			<path fill="none" d="M30.2,35.9c0.1,0,0.2-0.1,0.2-0.2c0.2-0.3,0.4-0.6,0.5-1h-0.1C30.7,35.1,30.4,35.4,30.2,35.9z"/>
			<path fill="none" d="M45.6,22.3c0.1,0.1,0.2,0.1,0.3,0.2C45.9,22.4,45.7,22.3,45.6,22.3z"/>
			<path fill="none" d="M42.9,22.6c-0.1-0.1-0.2-0.2-0.3-0.1c-0.2,0-0.5,0-0.7,0.1c-0.2,0-0.4,0-0.5,0.1
				C41.9,22.8,42.4,22.8,42.9,22.6z"/>
			<path fill="none" d="M34.1,28.9c0.1-0.1,0.2-0.2,0.2-0.3C34.2,28.6,34,28.7,34.1,28.9z"/>
			<path fill="none" d="M42,23.6c-0.2,0-0.4,0-0.4,0.1C41.7,23.6,41.9,23.6,42,23.6z"/>
			<path fill="none" d="M32.7,26.6c0.3-0.2,0.7-0.6,1-0.8c0.1-0.1,0.3-0.2,0.3-0.3c-0.2,0.1-0.3,0.2-0.5,0.3
				C33.2,26,32.9,26.3,32.7,26.6z"/>
			<path fill="none" d="M32.1,43.1c0.1-0.1,0.3-0.2,0.3-0.3C32.3,42.8,32.2,42.9,32.1,43.1z"/>
			<path fill="none" d="M32.5,34.7c0,0.2-0.2,0.3-0.1,0.4C32.5,35,32.6,34.8,32.5,34.7z"/>
			<path fill="none" d="M32.6,43.2c-0.1,0.1-0.2,0.2-0.1,0.3c0.3-0.2,0.6-0.4,0.7-0.8c0,0,0,0,0,0C33,42.8,32.8,43,32.6,43.2z"/>
			<path fill="none" d="M32,43.1c-0.3,0.2-0.5,0.4-0.8,0.6C31.5,43.5,31.9,43.4,32,43.1z"/>
			<path fill="none" d="M51.3,27.1c0.1-0.1,0-0.4-0.1-0.4c0.1,0.1,0.1,0.1,0,0.2C51.2,26.9,51.2,27.1,51.3,27.1z"/>
			<path fill="none" d="M51.3,25.7c0,0.3-0.1,0.7,0.1,0.9C51.4,26.4,51.4,25.9,51.3,25.7z"/>
			<path fill="none" d="M51.6,27.3c-0.2,0.1-0.2,0.5,0,0.7C51.7,27.8,51.6,27.5,51.6,27.3z"/>
			<path fill="none" d="M28,41.6c-0.1,0.2-0.2,0.4-0.2,0.6C27.9,42,28.1,41.8,28,41.6z"/>
			<path fill="none" d="M30.4,44.3c0.1-0.1,0.3-0.1,0.2-0.3C30.5,44.2,30.3,44.3,30.4,44.3z"/>
			<path fill="none" d="M40.4,23.3c0.2,0,0.3,0,0.4-0.1C40.6,23.2,40.5,23.2,40.4,23.3z"/>
			<path fill="none" d="M28.2,53.8c0,0.1-0.1,0.2-0.1,0.3c0.1,0,0.2,0.1,0.2,0C28.4,54,28.3,53.9,28.2,53.8z"/>
			<path fill="none" d="M51.9,27.8c-0.1,0-0.2,0.1-0.2,0.2C51.8,28,51.9,27.9,51.9,27.8z"/>
			<path fill="none" d="M29.1,36.4c-0.2,0.2-0.5,0.5-0.6,0.8c0.1-0.1,0.4-0.2,0.5-0.4C29,36.7,29.1,36.4,29.1,36.4z"/>
			<path fill="none" d="M30.2,33.3c-0.3,0.4-0.7,0.6-0.9,1.1C29.6,34.1,29.9,33.8,30.2,33.3C30.2,33.3,30.2,33.3,30.2,33.3z"/>
			<path fill="none" d="M28.9,41.7c0.2-0.1,0.1-0.5,0.1-0.8C29,41.1,28.9,41.3,28.9,41.7z"/>
			<path fill="none" d="M29.7,37.4c-0.1,0.1-0.3,0.3-0.3,0.6C29.5,37.8,29.7,37.6,29.7,37.4z"/>
			<path fill="none" d="M29.5,36.6c-0.2,0.3-0.4,0.7-0.6,1c0.2-0.1,0.3-0.3,0.4-0.4C29.3,37,29.4,36.8,29.5,36.6
				C29.5,36.6,29.5,36.6,29.5,36.6z"/>
			<path fill="none" d="M30.7,31.7c-0.2,0.3-0.6,0.4-0.6,0.8C30.3,32.3,30.8,32,30.7,31.7z"/>
			<path fill="none" d="M30.1,32.5c-0.1,0-0.1,0.1-0.1,0.1C30,32.6,30.1,32.6,30.1,32.5z"/>
			<path fill="none" d="M30.8,30.8c-0.1,0.1-0.3,0.2-0.3,0.3C30.7,31.1,30.8,31,30.8,30.8z"/>
			<path fill="none" d="M30.8,43.8c-0.1,0.1-0.2,0.1-0.2,0.2C30.7,44,30.8,43.9,30.8,43.8z"/>
			<path fill="none" d="M31.2,28.7c0.3-0.1,0.7-0.4,0.7-0.7C31.6,28.2,31.3,28.4,31.2,28.7z"/>
			<path fill="none" d="M49.9,28.4c-0.1-0.2-0.2-0.5-0.4-0.6C49.5,28.1,49.7,28.3,49.9,28.4z"/>
			<path fill="none" d="M49.8,24.9c0-0.2-0.2-0.3-0.3-0.4c0-0.2-0.3-0.4-0.4-0.4C49.3,24.4,49.5,24.7,49.8,24.9z"/>
			<path fill="none" d="M49.6,28.5c0.1,0.3,0.3,0.5,0.5,0.7C50,29,49.8,28.7,49.6,28.5z"/>
			<path fill="none" d="M49,48.1c-0.3,0-0.6,0.2-0.8,0.3C48.5,48.4,48.8,48.3,49,48.1z"/>
			<path fill="none" d="M50.2,27.9c0-0.3-0.2-0.3-0.4-0.5C49.8,27.6,50,27.7,50.2,27.9z"/>
			<path fill="none" d="M50.1,25.2c0-0.1-0.1-0.1-0.1-0.2C50,25.2,50,25.2,50.1,25.2z"/>
			<path fill="none" d="M50.1,29.3C50.1,29.3,50.1,29.3,50.1,29.3c0,0.1-0.1,0.3,0.1,0.3C50.2,29.5,50.2,29.3,50.1,29.3z"/>
			<path fill="none" d="M48.9,24.3c-0.1-0.1-0.2-0.3-0.3-0.4c-0.2-0.2-0.3-0.5-0.6-0.4C48.2,23.9,48.6,24.1,48.9,24.3z"/>
			<path fill="none" d="M51,45.7c-0.1,0.2,0.1,0.4,0.1,0.6C51.2,46.1,51.2,45.8,51,45.7z"/>
			<path fill="none" d="M50.8,28.9c0,0.1,0,0.2,0,0.3C50.9,29.1,50.9,28.9,50.8,28.9z"/>
			<path fill="none" d="M40.3,22.7c-0.2,0-0.6,0-0.7,0.1C39.8,22.8,40.1,22.8,40.3,22.7z"/>
			<path fill="none" d="M49.9,24.7c0.1,0.3,0.3,0.5,0.5,0.7C50.4,25,50.2,24.8,49.9,24.7z"/>
			<path fill="none" d="M50.4,29.7c0,0.1,0,0.3,0.1,0.4C50.5,29.9,50.5,29.7,50.4,29.7z"/>
			<path fill="none" d="M50.1,26.2c0,0.1,0.1,0.2,0.1,0.1C50.2,26.2,50.2,26.2,50.1,26.2z"/>
			<path fill="none" d="M50.5,29.3c0-0.2,0.1-0.5,0-0.6C50.5,28.9,50.3,29.2,50.5,29.3z"/>
			<path fill="none" d="M50.1,28.2c0,0.1,0.1,0.2,0.1,0.3C50.3,28.4,50.2,28.2,50.1,28.2z"/>
			<path fill="none" d="M50.6,28.6c0-0.2,0-0.4,0-0.6C50.5,28.2,50.4,28.4,50.6,28.6z"/>
			<path fill="none" d="M35.4,27.8c0.1-0.1,0.2-0.1,0.2-0.2C35.5,27.6,35.3,27.8,35.4,27.8z"/>
			<path fill="none" d="M36.1,25.8c-0.3,0.1-0.6,0.3-0.8,0.5C35.5,26.2,35.8,26,36.1,25.8z"/>
			<path fill="none" d="M35.4,24.2c0.4-0.1,0.8-0.2,1.1-0.4C36.1,23.8,35.7,24,35.4,24.2z"/>
			<path fill="none" d="M37.7,24c0.3-0.1,0.6-0.2,0.9-0.4C38.2,23.7,37.9,23.8,37.7,24z"/>
			<path fill="none" d="M42.5,23.4c0.1,0,0.2,0.1,0.3,0.1c0.1-0.1,0.2-0.1,0.3-0.2C42.9,23.3,42.6,23.3,42.5,23.4z"/>
			<path fill="none" d="M38.2,23c0.3,0,0.7-0.1,1.1-0.1C38.9,22.6,38.4,22.8,38.2,23z"/>
			<path fill="none" d="M45.4,22.5c0.1,0.2,0.3,0.4,0.6,0.4C45.9,22.7,45.7,22.6,45.4,22.5z"/>
			<path fill="none" d="M47.7,23.5c-0.1-0.1-0.2-0.1-0.3-0.2C47.4,23.4,47.6,23.5,47.7,23.5z"/>
			<path fill="none" d="M45.3,23.7c0.2,0,0.4,0.2,0.6,0C45.7,23.7,45.5,23.6,45.3,23.7z"/>
			<path fill="none" d="M44.1,21.7c0.1,0.1,0.4,0.2,0.6,0.3c0.2,0.1,0.4,0.2,0.5,0.1C45,21.9,44.5,21.8,44.1,21.7z"/>
			<path fill="none" d="M43.1,23.4c0.3,0,0.6,0,0.8-0.1C43.7,23.3,43.3,23.2,43.1,23.4z"/>
			<path fill="none" d="M44.9,22.7c0.1,0,0.2,0.2,0.3,0.1C45.1,22.7,45,22.6,44.9,22.7z"/>
			<path fill="none" d="M43.2,22.5c0.5,0.1,0.9,0.3,1.4,0.2c-0.3-0.1-0.9-0.3-1.3-0.3C43.3,22.4,43.2,22.4,43.2,22.5z"/>
			<path fill="#231F20" d="M13,55.9C13,55.9,13,56,13,55.9C13,56,13,55.9,13,55.9L13,55.9z"/>
			<path fill="#231F20" d="M13.1,55.5c0,0.1-0.1,0.3-0.1,0.3C13.1,55.8,13.1,55.7,13.1,55.5z"/>
			<path fill="#231F20" d="M13,55.9c0-0.1,0-0.2,0-0.2C13,55.7,13,55.8,13,55.9z"/>
			<path fill="#231F20" d="M13,56.3L13,56.3c0-0.1,0-0.1,0-0.2C12.9,56.1,12.9,56.2,13,56.3z"/>
			<path fill="#231F20" d="M11.9,58.6C11.9,58.6,11.9,58.6,11.9,58.6c0,0,0-0.1,0-0.1C11.9,58.5,11.9,58.6,11.9,58.6z"/>
			<path fill="#231F20" d="M11.9,58.6c0,0,0.1-0.2,0.1-0.3l0,0C12,58.4,12,58.6,11.9,58.6z"/>
			<path fill="#231F20" d="M9.8,61.4c0-0.1,0.1-0.1,0.2-0.1c0,0,0,0,0,0C10,61.4,9.9,61.4,9.8,61.4z"/>
			<path fill="#231F20" d="M11.7,58.9c0,0.1,0,0.1-0.1,0.1C11.7,59,11.7,59,11.7,58.9z"/>
			<path fill="#231F20" d="M21.3,53.1c0.1,0,0.2-0.1,0.3-0.1c0.3-0.1,0.4-0.2,0.5-0.3c0.1-0.5-0.1-1-0.4-1.2
				c-0.2-0.1-0.7-0.2-0.9-0.1c-0.1,0.1-0.2,0.2-0.3,0.4c-0.1,0.2-0.1,0.4-0.1,0.7C20.6,52.8,20.8,53.2,21.3,53.1z"/>
			<path fill="#231F20" d="M30.7,58.8c0-0.1-0.1-0.2-0.1-0.3c0-0.2,0.1-0.4,0.2-0.6c0.1-0.9-0.4-1-0.8-1.3c0.2-0.5,0-1-0.3-1.2
				c-0.2-0.2-0.4-0.2-0.6-0.3c0.1-0.2,0.3-0.3,0.4-0.4c0.1-0.8-0.2-1.2-0.6-1.4c-0.2-0.1-0.4-0.1-0.5-0.2c-0.1-0.1-0.2-0.3-0.3-0.4
				c-0.2-0.2-0.3-0.2-0.6-0.3c-0.3-0.4-0.8-0.5-1.3-0.7c0.3-0.1,0.5-0.2,0.6-0.4c0-0.5-0.2-0.6-0.4-0.9c-0.1-0.2-0.3-0.4-0.5-0.4
				c-0.5-0.1-0.8,0.6-1,0.7c0-0.6,0.6-0.7,0.6-1.3c0-0.6-1.1-0.5-1.7-0.7c-0.2,0.4,0,1,0,1.4c-0.4-0.7-0.8-1.4-1.4-2.1
				c-1.5-1.9-3.8-3.1-7.1-3.3c-0.1-0.1-0.1-0.3-0.2-0.5c0.4-0.1,0.7-0.3,0.8-0.6c0.4,0,0.6-0.5,0.4-0.8c0.6,0,0.8-0.4,1.3-0.5
				c0.1,0,0.1-0.2,0.2-0.2c0.4,0.2,1.2,0.4,1.5,0c0.2,0,0.4-0.1,0.6-0.1c0.1,0.2,0.3,0.2,0.5,0.3c0.2,0.1,0.3,0.4,0.6,0.4
				c0.3,0.1,0.5,0,0.8,0c0.4,0.1,0.7,0.5,1,0.5c0.2,0.3,0.4,0.6,0.9,0.6c0.4-0.2,0.4-0.8,0.1-1.2c-0.1,0-0.2-0.1-0.2-0.1
				c0-0.4-0.4-0.4-0.6-0.7c-0.1-0.4-0.4-0.6-0.8-0.6c-0.2-0.2-0.4-0.4-0.7-0.5c-0.4-0.6-1.5-0.6-2-0.1c-0.2-0.3-0.4-0.4-0.8-0.4
				c-0.1,0-0.3,0.1-0.4,0.1c-0.3,0-0.5,0-0.7,0.1c-0.1,0.1-0.3,0.3-0.4,0.3c-0.1,0-0.2-0.1-0.4-0.2c-0.3-0.2-0.6-0.3-1-0.2
				c-0.6,0.2-1,0.5-0.9,1.2c-0.2-0.1-0.2-0.3-0.4-0.3c-0.4,0-0.7,0.4-0.6,0.8c-0.1,0.1-0.2,0.2-0.3,0.2c-0.5-0.3-0.9,0.3-0.7,0.7
				c-0.1,0-0.1,0-0.2,0c0-0.4-0.2-0.7-0.3-1c-0.3-0.1-1.4-0.5-1.4,0.1c0,0.3,0.1,0.8,0.2,1.2c0.1,0.4,0.2,0.9,0.2,1.3
				c0,0.2,0,0.3-0.1,0.4c-0.3-0.1-0.5-0.4-0.5-0.8c0-0.3,0-1-0.3-1c-0.1,0-0.3,0.1-0.4,0.1c-0.4,0.1-0.8,0-1.1,0
				c0.2,0.7,0.4,1.2,0.8,1.6c0.1,0.1,0.3,0.2,0.4,0.4c-0.5,0.2-0.9,0.3-1.3,0.7c-0.2,0.2-0.4,0.5-0.6,0.7c-0.3,0.3-0.7,0.3-1.1,0.5
				c-0.8,0.3-1.3,0.8-1.8,1.3c-0.2,0.3-0.5,0.6-0.7,0.9c-0.2,0.2-0.5,0.3-0.8,0.4c-0.6,0.3-1,1-1,2c0,0.4,0.1,0.9,0,1.3
				c-0.1,0.5-0.4,0.7-0.6,1c-0.3,0.6-0.3,1.5,0,2.1c0.1,0.2,0.4,0.5,0.4,0.7c0,0.2-0.1,0.5-0.1,0.8c-0.1,0.6-0.1,1.2-0.1,1.9
				c0.1,2.1,1.2,2.6,2.1,3.9c-0.2,0.1-0.5,0.2-0.7,0.3c0.2,0.1,0.6,0.1,0.9,0c0.2,0.2,0.1,0.6,0,0.9c-0.1,0.2-0.1,0.4-0.2,0.5
				c-0.2,0.5-0.9,1.2-0.2,1.6c0.4,0.2,1,0.3,1.4,0.5c0.1,0.3,0.2,0.6,0.2,1c0,0.3-0.3,0.5,0,0.6c0.1,0.1,0.4,0.1,0.5,0.1
				c0.1-0.2,0.7-0.2,0.9-0.1c-0.2,0.1-0.4,0.2-0.4,0.5c0,0.4,0.4,0.8,0.9,0.5C7.9,70,7.7,71,8,71.4c0.1,0.1,0.2,0.1,0.3,0.3
				c0.7,0.6,1.6,0.1,2.3-0.1c0.7-0.2,1.3-0.5,2-0.7c0.4-0.1,0.8-0.3,1.2-0.2c0.5,0.1,0.7,0.9,0.9,1.3c2.9-0.4,5.5-1.3,7.6-2.5
				c-0.3-1.2-0.5-2.6-0.3-4.2c0.1-0.7,0.4-1.4,0.9-1.9c0.3-0.3,0.7-0.6,1-0.9c1.4-1.4,1.7-4.5,1.4-7.1c0.7,0.4,1.3,0.1,2,0
				c-0.2,1.1,0.5,1.5,1.2,1.8c-0.1,0.1-0.1,0.2-0.1,0.3c-0.1,0.5,0.3,0.9,0.5,1.2c-0.4,0.4-0.4,1.4-0.1,1.8
				c-0.1,0.1-0.3,0.3-0.5,0.2c-0.2,0.2,0,0.6,0.1,0.8c-0.1,0.2-0.3,0.4-0.3,0.7c-0.1,0.2-0.3,0.3-0.4,0.5c0.2-0.1,0.5-0.2,0.6-0.3
				c0.4,0.3,0.6-0.6,0.9-0.7c0.1-0.1,0-0.1,0-0.2c0.2-0.1,0.3-0.4,0.4-0.7c0.6-0.1,0.9-0.6,0.9-1.2c0.2,0,0.5-0.1,0.5-0.4
				c0-0.1-0.1-0.2-0.2-0.3C30.7,58.9,30.7,58.8,30.7,58.8z M23.5,42.3c0,0-0.1-0.1-0.2,0c0-0.1,0-0.1,0-0.2
				C23.3,42.2,23.4,42.2,23.5,42.3z M23.1,42.2c-0.1,0-0.2-0.1-0.2-0.2C23,41.7,23.1,42.1,23.1,42.2z M14.7,53.7
				c0,0.3-0.2,0.6-0.3,0.9c-0.2,0.7-0.3,1.4-0.6,2.1c-0.4,0.8-0.8,1.7-1.2,2.5c-0.5,0.9-1,1.6-1.6,2.1c0,0-0.1,0-0.1,0
				c-0.2,0.2-0.3,0.4-0.6,0.5c-0.5,0.6-1.2,0.8-1.9,1.1c0,0,0,0,0-0.1c0,0-0.1,0-0.1,0c0,0,0-0.2,0-0.2c0,0-0.1,0,0,0
				c-0.2,0.1-0.6,0.4-0.9,0.4c-0.1,0,0,0,0,0c0,0.1-0.2,0.2-0.3,0.2c0,0,0,0,0.1,0c0-0.1-0.1,0-0.2,0c0,0,0,0,0-0.1
				c-0.2,0-0.4,0.1-0.6,0.2c0-0.1,0.1,0,0.1,0c0-0.1-0.2,0-0.2,0c0,0,0,0,0,0c-0.2,0-0.4,0.2-0.4,0.1c0,0.1-0.1,0.1-0.2,0.1
				c-0.1-0.1,0.1-0.1,0.1-0.1c0,0-0.2,0-0.3,0c0.1-0.1,0-0.1-0.1-0.1c0.1,0,0.1-0.1,0.2-0.1c0,0,0,0,0,0c0.7-0.3,1.6-0.4,2.3-0.7
				c0.5-0.2,0.8-0.5,1.1-0.9c0.2,0,0.3-0.2,0.4-0.2c0,0,0,0,0,0c0.3-0.2,0.5-0.4,0.8-0.7c0-0.1-0.1,0-0.1-0.1c0.1-0.1,0.1,0.1,0.1,0
				c0-0.1,0,0-0.1,0c0-0.1,0.1,0,0.2-0.1c0,0,0-0.1,0-0.1c0.1-0.2,0.5-0.2,0.5-0.4c0,0,0.1,0,0.1,0c0.2-0.2,0.4-0.4,0.6-0.7
				c0.1-0.1,0.1-0.3,0.2-0.4c0.1-0.2,0.4-0.4,0.3-0.7c0.1-0.1,0.3-0.2,0.3-0.3v-0.2c0-0.3,0.3-0.9,0.5-1.2c0.1-0.7,0.4-1.3,0.4-2.1
				c-0.4,0.1-0.6,0.5-1.1,0.6c-0.4,0.2-1.3,0.4-1.6,0c-0.2,0-0.3-0.1-0.4-0.1c0-0.1-0.1-0.1-0.1-0.2c-0.1,0-0.1-0.1-0.2-0.1
				c-0.5-0.5-0.8-1.9-0.5-2.8c0-0.6,0.5-1.2,0.9-1.5c0-0.1-0.1-0.2-0.1-0.3c0.1-0.1,0.2-0.1,0.3-0.2c0.4-0.8,1.4-1.2,2.4-1.5
				c0,0,0,0.1,0,0.1c0.1,0,0.1,0,0.1,0c-0.1,0.1,0.1,0.1,0.1,0.2c0.1-0.1,0.3,0,0.4,0.1c0.1,0,0.1,0,0.2-0.1c0.2,0,0.2,0.2,0.4,0.3
				c0,0.1-0.1,0.1-0.1,0.1c0,0,0,0.1,0.1,0.1c-0.2,0.1,0,0.3-0.3,0.3c0,0.1,0,0.1,0,0.1c-0.4,0.3-0.7,0.5-1.3,0.6c0,0,0-0.1-0.1-0.1
				c-0.1,0-0.1,0.1-0.2,0.1c-0.1,0,0,0,0-0.1c-0.8,0.8-1.9,1.3-2,2.8c-0.1,0-0.1-0.1-0.1-0.2c-0.1,0.2,0,0.4,0.1,0.5
				c0,0.3,0.1,0.5,0.3,0.6c0.1,0.3,0.6,0.5,1,0.6c0.5,0,0.7-0.2,1-0.4c0.2-0.5,0.7-0.9,0.9-1.4c0.1-0.2,0.1-0.5,0.3-0.7
				c0,0,0,0,0.1,0c0-0.1,0-0.1,0-0.1c0.1,0-0.1,0.1,0,0.1c0.1-0.1,0.1-0.1,0.1-0.2c0,0.1,0.1,0.1,0,0.1c0.1,0,0.1-0.1,0.1-0.1
				c0,0.1,0,0.1,0,0.2c0,0,0.1-0.1,0.1,0c0.1,0,0-0.1,0-0.1c0-0.1,0,0.1,0,0.1c0,0,0-0.1,0,0c0.1,0,0.1-0.1,0.1-0.1
				c0,0.1,0,0.2,0.1,0.2c0-0.1,0.1,0.1,0.1,0c0,0,0,0.1,0,0.1c0,0,0.1-0.1,0.1-0.1c0,0,0.1,0.1,0.2,0.1
				C14.7,52.6,14.7,53.2,14.7,53.7z M18,56.2C17.9,56.2,18,56.1,18,56.2c0-0.1-0.1,0.1-0.1,0.2c-0.3,0.3-0.5,0.5-0.9,0.7
				c-0.1,0-0.1,0.1-0.1,0.2c-0.1,0-0.1-0.1-0.3-0.1c0,0,0,0,0-0.1c-0.3-0.1-0.5-0.4-0.7-0.7c0,0.2,0.2,0.4,0.3,0.6
				c-0.6-0.6-1.1-2.2-0.6-3.2c0.1-0.7,0.1-1.6,0.4-2.2c0,0,0,0,0,0.1c0.1-0.1,0.1-0.3,0.2-0.4c0.1,0.1,0,0.2,0,0.3
				c0.1,0,0-0.1,0-0.1c0.1,0.1,0,0.2,0,0.2c0,0,0-0.1,0-0.1c0,0,0,0.2,0,0.3c0,0,0.1-0.2,0.1-0.1c0.1,0.1,0.1,0.3,0.1,0.4
				c0,0,0-0.1,0-0.1c0.2,0.7-0.1,1.5-0.1,2.2c0,0,0-0.1,0-0.1c0,0.3-0.2,0.8-0.1,1.2c0,0.1,0.3,0.5,0.4,0.5c0.3,0,0.6-0.7,0.7-1
				c0.3-1.3,0.4-3.1,0.5-4.6c0,0,0,0,0.1,0c-0.1-0.1-0.1-0.5,0-0.6c0.1,0.2,0,0.3,0,0.5c0.1,0,0.1,0.2,0.1,0.1c0,0.2,0,0.4,0,0.7
				c0,0.1,0.1,0.1,0.1,0.1c0,0.2,0,0.4,0,0.6c0.1-0.1,0-0.4,0.1-0.5c0.1,0.7,0.1,1.6,0,2.4c0,0.1,0.1,0,0.1,0
				C18.5,54.5,18.4,55.5,18,56.2z M23.5,57.5c-0.3,0-0.6-0.1-0.9-0.2c-0.1,0-0.2,0-0.3,0c-0.2,0-0.4-0.1-0.6-0.3
				c-0.4-0.2-0.7-0.3-1-0.7c-0.3-0.4-0.7-0.7-0.9-1.1c0-0.1,0-0.3-0.1-0.4c0-0.1-0.1-0.1-0.1-0.2c0-0.1,0-0.2,0-0.4
				c0-0.2-0.2-0.4-0.2-0.6c-0.1-0.3,0-0.7,0-1.1c0-0.3,0.1-0.7,0.1-0.9c0.1-0.4,0.3-0.7,0.5-1c0.3-0.2,0.6-0.1,0.9-0.1
				c0.1,0,0.1-0.1,0.2,0c0.1,0,0.2,0.1,0.3,0.1c0.1,0.1,0.2,0.1,0.3,0.1c0.2,0.1,0.4,0.4,0.5,0.5c0,0.1,0.1,0,0.1,0.1
				c0.2,0.4,0.5,0.6,0.4,1c0,0.1,0.1,0.1,0.1,0.1c-0.1,0.5,0,1-0.4,1.2c-0.1,0-0.1,0-0.2,0.1c-0.1,0.1-0.2,0.2-0.3,0.2
				c-0.2,0-0.4,0-0.6,0c-0.1,0-0.2,0.1-0.3,0.1c-0.2,0-0.4-0.1-0.6-0.1c-0.1,0.1,0,0.3,0,0.5c0.1,0.2,0.3,0.3,0.3,0.6
				c0.2,0.5,0.7,0.9,1.1,1.2c0.7,0.1,1,0.6,1.6,0.7c0.3,0.1,0.5,0,0.9,0.1C24.8,57.5,23.9,57.5,23.5,57.5z M28.1,54.1
				c0-0.1,0-0.2,0.1-0.3c0.1,0,0.2,0.1,0.2,0.3C28.3,54.2,28.2,54.2,28.1,54.1z"/>
			<path fill="#231F20" d="M41.4,34.3c-0.3-0.2-0.5,0.1-0.8,0.2c-0.3,0.3-0.5,0.6-0.7,0.9c0,0.2-0.2,0.3-0.2,0.4
				c-0.1,0.4,0.1,0.8,0.2,1c0.1,0.4,0.1,0.7,0.4,0.8c0.1,0.3,0.4,0.6,0.8,0.5c0.1-0.1,0.2-0.2,0.3-0.3c0-0.1,0.1-0.1,0.1-0.1
				c0.1-0.1,0-0.2,0.1-0.3c0-0.1,0.1-0.1,0.1-0.2c0-0.1,0-0.2,0-0.3c0.1-0.3,0.2-0.5,0.2-0.8c0-0.5-0.2-0.7-0.3-1
				C41.6,34.8,41.5,34.5,41.4,34.3z"/>
			<path fill="#231F20" d="M51.8,37.5c0.7-0.3,1-1,1.2-1.9c-0.5-0.2-1.1-0.1-1.6-0.3c0.1-0.3,0.2-0.6,0.1-0.9c0-0.5-0.4-0.9-0.5-1.3
				c-0.2-0.5-0.2-1.1-0.3-1.7c0.4-0.5,0.6-1.2,0.6-2c-0.2,0.4-0.4,0.9-0.5,1.3c0,0.1,0,0.3-0.2,0.4c0.2-0.9,0.6-1.6,0.8-2.4
				c0,0,0.1,0,0.1-0.1c-0.1-0.4,0.3-0.5,0.5-0.8c0.3-0.3,0.5-0.6,0.8-0.7c-0.1,0-0.2,0.1-0.2,0c-0.3,0.2-0.7,0.5-1,0.7
				c0-0.3,0.1-0.6,0.3-0.8c0.2-0.2,0.4-0.4,0.5-0.6c-0.2,0.1-0.3,0.3-0.5,0.4c-0.1,0.2-0.2,0.4-0.3,0.6c-0.1-0.4,0.1-0.7,0.1-1.1
				c0.1-0.5-0.1-1-0.5-1.2c0.2,0.2,0.4,0.7,0.3,1.2c-0.1-0.3-0.3-0.5-0.3-0.8c0-0.2,0.1-0.4,0-0.7c-0.1,0.1,0,0.4,0,0.5
				c-0.1,0-0.1-0.2-0.1-0.1c0,0.1,0.2,0.2,0.1,0.3c-0.1,0-0.2-0.2-0.3-0.1c0.1,0.1,0.3,0.1,0.3,0.3c0,0.2,0,0.4,0,0.7
				c-0.2-0.3-0.3-0.6-0.5-0.9c0.2,0.1,0.2,0.2,0.4,0.3c-0.3-0.4-0.6-0.7-0.9-1.1c-0.2-0.4-0.5-0.8-0.9-1.1c0.1,0.1,0.2,0.2,0.3,0.4
				c-0.1,0-0.1-0.1-0.2-0.1c0.2,0.3,0.4,0.5,0.6,0.9c-0.2-0.2-0.5-0.3-0.7-0.6c-0.1-0.2-0.1-0.4-0.3-0.5c0,0.1,0.1,0.3,0.1,0.4
				c-0.2-0.1-0.3-0.4-0.5-0.6c0,0.1,0.2,0.2,0.1,0.3c-0.3-0.2-0.6-0.5-0.9-0.7c-0.3-0.2-0.6-0.5-1-0.6c0.3,0.3,0.6,0.5,0.9,0.8
				c-0.1,0-0.1-0.1-0.2,0c0.1,0,0.3,0.2,0.4,0.3c0.1,0.1,0.3,0.1,0.3,0.3c-0.4,0-0.6-0.3-0.8-0.6c-0.4-0.2-0.7-0.7-1.1-0.9
				c0.3,0.4,0.8,0.7,1,1.2c-0.4-0.2-0.5-0.5-0.8-0.8c0,0.1,0.1,0.1,0.1,0.3c-0.3-0.2-0.4-0.5-0.7-0.6c0.2,0.3,0.5,0.6,0.6,0.9
				c-0.5-0.5-1-1.1-1.5-1.5c0.1,0.3,0.4,0.5,0.5,0.8c-0.1,0-0.2-0.1-0.3-0.2c-0.7-0.3-1.2-0.7-2-0.8c0.2,0.1,0.4,0.2,0.6,0.3
				c0.2,0.1,0.4,0.2,0.6,0.3c-0.7-0.1-1.1-0.4-1.7-0.6c0,0-0.1,0,0,0c0.2,0.2,0.5,0.2,0.7,0.4c-0.3,0-0.6-0.2-1-0.2
				c0.3,0.1,0.7,0.2,1,0.4c-0.4,0-0.6-0.1-0.9-0.3c-0.7-0.3-1.6-0.5-2.3-0.4c0.7,0.2,1.5,0.2,1.9,0.6c-0.8-0.2-1.9-0.4-2.7-0.1
				c0.4,0,1.1,0,1.5,0.1c-0.6,0-1.1,0.3-1.6,0.3c-0.4,0-0.8-0.1-1.3-0.1c0.3,0.2,0.9,0.1,1.2,0.3c-0.8,0.5-2,0.1-2.9-0.1
				c0.1,0.2,0.4,0.2,0.5,0.3c-0.3,0-0.6,0-1,0c0.5,0.2,1.2,0.2,1.7,0.3c-0.5,0.1-1.2,0-1.7,0.1c0.6,0.1,1.3,0.1,2,0
				c-0.4,0.5-1.6,0.2-2.2,0.4c0.3,0.1,0.7,0,0.9,0.1c-0.5,0.2-1.4,0.1-1.9,0.3c0.3,0,0.6,0,0.9,0c-0.5,0.3-1.6,0.2-2.2,0.1
				c0.3,0.2,0.8,0.2,1.3,0.3c-0.2,0-0.3,0.2-0.5,0.2c-0.1,0-0.2-0.1-0.4-0.1c0,0.1,0.2,0.1,0.2,0.2c-0.6,0.2-1.1,0.2-1.7,0.3
				c0.5,0.1,1.1-0.1,1.4,0c-0.6,0.2-1.4,0.3-2,0.5c0.5,0,1-0.2,1.5-0.2c-0.4,0.5-1,0.6-1.6,1c-0.3,0.2-0.6,0.3-0.8,0.6
				c0.4-0.3,0.9-0.5,1.4-0.7c-0.4,0.6-1,0.9-1.3,1.4c0.2-0.1,0.3-0.3,0.6-0.4c-0.1,0.2-0.2,0.3-0.3,0.5c-0.4,0.5-0.9,0.8-1,1.4
				c0.2-0.2,0.4-0.6,0.8-0.7c0.5-0.7,1.2-1.1,1.8-1.6c-0.2,0.3-0.4,0.4-0.7,0.6c-0.4,0.4-0.8,0.8-1.3,1.3c-0.3,0.3-0.6,0.7-1,0.8
				c0.1,0.1,0.2,0,0.3,0c-0.1,0.2-0.4,0.4-0.5,0.6c0.3-0.1,0.5-0.5,0.9-0.7c0.1-0.1,0.3-0.1,0.4-0.1c0.1-0.1,0.2-0.2,0.4-0.1
				c-0.1,0.3-0.4,0.4-0.6,0.6c0.1,0,0.3-0.1,0.3,0c-0.6,0.5-1.3,0.9-1.8,1.4c0.6-0.3,1.1-0.8,1.7-1c-0.2,0.1-0.4,0.2-0.5,0.4
				c0.3-0.1,0.6-0.3,0.9-0.4c-0.6,0.7-1.5,1.2-2.2,1.8c0.5-0.2,1-0.5,1.4-0.8c0.1-0.1,0.2-0.3,0.4-0.3c-0.1,0.4-0.4,0.5-0.7,0.8
				c-0.6,0.5-1.1,0.9-1.5,1.5c0.4-0.3,0.7-0.7,1.2-1c0,0.1-0.1,0.2-0.2,0.3c0.3-0.1,0.5-0.4,0.8-0.5c-0.1,0.2-0.4,0.4-0.6,0.6
				c-0.4,0.4-0.8,1-1.2,1.5c-0.1,0.2-0.3,0.4-0.3,0.6c0.6-0.7,1.2-1.5,1.9-2c-0.5,0.6-1.1,1.3-1.5,2.1c-0.1,0.3-0.2,0.6-0.4,0.8
				c-0.2,0.3-0.5,0.5-0.6,0.8c0.1-0.1,0.3-0.3,0.4-0.3c0,0.2-0.3,0.2-0.3,0.4c0.2-0.2,0.2-0.5,0.2-0.7V35c0.9-0.4,1-1.2,1.5-1.5
				c-0.2,0.4-0.5,0.7-0.7,1.1c0.1,0,0.2-0.2,0.3-0.2c-0.3,0.9-0.9,1.5-1.4,2.2c0.4-0.2,0.6-0.6,0.9-0.9c-0.1,0.5-0.5,0.9-0.5,1.3
				c0.6-1,1.2-2.1,2-2.9c-0.1,0.5-0.4,1-0.7,1.4c-0.4,0.5-0.8,1.1-1.2,1.5c-0.2,0.2-0.5,0.5-0.6,0.7c0.2-0.1,0.3-0.3,0.5-0.3
				c-0.3,0.4-0.9,0.7-1.2,1.1c0.7-0.4,1.4-1,2-1.4c-0.1,0.2-0.1,0.4-0.2,0.6c-0.1,0.1-0.3,0.3-0.5,0.4c-0.4,0.4-0.8,0.8-1.1,1.2
				c0.4-0.3,0.7-0.8,1.2-1c-0.7,0.8-1.3,1.7-1.6,2.8c0.5-1,1-2,1.7-2.7c-0.5,0.8-1.1,1.6-1.2,2.7c0.3-0.8,0.7-1.5,1.1-2.2
				c0.1-0.2,0.3-0.5,0.5-0.6c-0.1,0.5-0.3,0.8-0.5,1.1c-0.3,0.4-0.5,0.9-0.7,1.5c-0.1,0.2-0.2,0.5-0.2,0.8c0.2-0.5,0.4-1.1,0.7-1.5
				c-0.1,0.9-0.6,1.5-0.8,2.2c0.4-0.6,0.6-1.3,1-1.9c0,0.2-0.1,0.2,0,0.4c-0.5,0.9-0.8,2-1.4,2.8c-0.1,0,0,0,0,0.1
				c-0.1,0.1-0.1,0.1-0.2,0.2c0.5-0.3,0.9-0.9,1.2-1.4c0,0.1-0.1,0.2,0,0.2c0.2-0.3,0.3-0.7,0.5-0.9c0.1,0-0.1,0.2,0,0.2
				c0.2-0.3,0.2-0.7,0.4-1c-0.3,1.3-1.2,2.1-1.8,3.1c0.1-0.1,0.2-0.3,0.4-0.4c-0.3,0.5-0.6,0.9-0.9,1.3c0.4-0.3,0.8-0.7,1-1.1
				c0.3-0.4,0.5-1,0.8-1.3c-0.3,0.9-0.5,1.8-0.9,2.6c0.2-0.1,0.3-0.4,0.4-0.5c0.3-0.4,0.5-0.8,0.7-1.2c0.1-0.2,0.1-0.5,0.3-0.6
				c-0.1,0.2-0.1,0.3-0.1,0.5c0,0.3-0.3,0.6-0.4,0.8c-0.3,0.5-0.6,1.1-0.8,1.7c0.5-0.4,0.7-1.1,1.1-1.5c0-0.2,0.1-0.4,0.3-0.4
				c0,0.6-0.4,0.9-0.6,1.3c0.4-0.2,0.6-0.7,0.9-1c0.1-0.3,0.3-0.5,0.4-0.7c0-0.1-0.1,0.1-0.1,0c0.4-0.5,0.9-1.1,1.4-1.6
				c0,0.1-0.2,0.2-0.2,0.3c0,0,0.1-0.1,0.1,0c-0.3,0.4-0.6,0.9-0.8,1.4c-0.1,0.2-0.2,0.4-0.3,0.5c-0.2,0.2-0.4,0.3-0.6,0.5
				c-0.3,0.3-0.5,0.6-0.7,0.9c0.5-0.2,0.7-0.7,1.1-1c0,0.1-0.1,0.1,0,0.1c0.3-0.5,0.7-0.9,1.1-1.3c-0.1,0.3-0.3,0.5-0.5,0.8
				c-0.4,0.3-0.7,0.6-1,0.9c0.4-0.1,0.6-0.4,1-0.7c-0.3,0.3-0.6,0.6-0.9,1c0.5-0.3,0.9-0.7,1.3-1c0.1-0.1,0.3-0.3,0.4-0.3
				c0,0.1-0.1,0.2-0.1,0.2c0.2-0.2,0.5-0.4,0.7-0.4c-0.5,0.5-1.1,0.9-1.6,1.5c0.6-0.3,1.1-0.9,1.6-1.2c-0.1,0.1-0.2,0.2-0.3,0.4
				c0.4-0.2,0.7-0.5,1-0.7c-0.1,0.2-0.3,0.5-0.5,0.6c0-0.1,0.2-0.1,0.2-0.3c-0.5,0.2-0.9,0.6-1.2,0.9c-0.1,0.1-0.3,0.2-0.3,0.4
				c0.2-0.1,0.4-0.3,0.6-0.4c-0.1,0.1-0.2,0.2-0.3,0.3c0.5-0.2,0.9-0.7,1.3-0.9c-0.4,0.4-0.9,0.6-1.2,1c0.6-0.3,1.1-0.5,1.5-0.9
				c0.3,0.1,0.6-0.3,0.8-0.4c-0.3,0.6-0.9,0.8-1.2,1.4c0.5-0.3,0.9-0.9,1.4-1.1c0.1,0.5-0.3,0.6-0.4,1c0.2-0.1,0.2-0.3,0.3-0.4
				c-0.4,1.3-0.6,1.9-1.5,2.6c-0.8,0.7-2.4,2-2.5,2.3c0.3,0.2,2.9-0.3,4.6-1c0.8-0.3,2.2-1.1,2.9-1.5c0.8-0.5,1.8-1,3-0.9
				c1.7,0.1,3.2,0.8,4.6,1.4c0.5,0.1,1,0.1,1.5,0.2c0.6,0.1,1.4-0.2,2,0.1c-0.1,0.1-0.3,0-0.4,0.1c0.9,0.3,1.6-0.4,2.2-0.6
				c-0.1,0.2-0.3,0.3-0.5,0.4c0.3,0,0.4-0.3,0.6-0.3c0.2-0.2,0.3-0.5,0.5-0.8c0,0.2-0.1,0.5,0,0.7c0.2-0.4,0.3-1,0.3-1.6
				c0.1,0.2,0.1,0.6,0.1,0.9c0.2-0.1,0.2-0.5,0.2-0.7c0-0.4,0.2-0.8,0-1.2c0.1,0.1,0.1,0.2,0.1,0.2c0-0.4-0.2-0.7-0.3-1
				c0.1,0.1,0.2,0.4,0.4,0.5c0.1-0.4-0.3-0.6-0.5-1c-0.1-0.2,0-0.4-0.1-0.7c0.1-0.1,0.2,0,0.3,0c0.3-0.1,0.4-0.7,0.1-0.9
				c-0.1-0.1-0.2-0.1-0.3-0.2c0.1,0,0.1,0,0.2,0c0.3-0.2,0.4-1-0.1-1.1c-0.1-0.2-0.2-0.4-0.1-0.6c0.1-0.3,0.5-0.1,0.8-0.1
				c0.4,0,0.7-0.3,0.8-0.6c0.1-0.4,0-0.7-0.2-0.9C52.3,38.5,52,37.9,51.8,37.5z M51.9,27.8c0,0.1-0.1,0.2-0.2,0.2
				C51.7,27.9,51.8,27.9,51.9,27.8z M51.6,27.3c0,0.2,0,0.5,0,0.7C51.4,27.8,51.4,27.4,51.6,27.3z M51.3,25.7
				c0.2,0.1,0.2,0.6,0.1,0.9C51.1,26.5,51.3,26,51.3,25.7z M51.2,26.7c0.1,0,0.2,0.3,0.1,0.4c-0.1,0,0-0.2-0.1-0.2
				C51.2,26.8,51.3,26.8,51.2,26.7z M27.8,42.2c0-0.2,0.1-0.4,0.2-0.6C28.1,41.8,27.9,42,27.8,42.2z M30.4,44.3
				c0-0.1,0.2-0.2,0.2-0.3C30.6,44.2,30.4,44.3,30.4,44.3z M30.5,44c0.1-0.1,0.1-0.2,0.2-0.2C30.8,43.9,30.7,44,30.5,44z M30.8,30.8
				c0,0.1-0.2,0.3-0.3,0.3C30.6,31,30.7,30.9,30.8,30.8z M30.7,31.7c0,0.3-0.4,0.6-0.6,0.8C30.2,32.1,30.5,31.9,30.7,31.7z
				 M30.1,32.5c0,0.1-0.1,0.1-0.1,0.1C30,32.6,30,32.5,30.1,32.5z M29.3,34.4c0.2-0.5,0.6-0.8,0.9-1.1c0,0,0,0,0,0
				C29.9,33.8,29.6,34.1,29.3,34.4z M28.5,37.2c0.1-0.2,0.4-0.5,0.6-0.8c0.1,0-0.1,0.3-0.1,0.4C28.8,37,28.6,37.1,28.5,37.2z
				 M28.9,41.7c0-0.3,0.1-0.5,0.1-0.8C29,41.1,29.1,41.5,28.9,41.7z M29.2,37.1c-0.1,0.2-0.2,0.4-0.4,0.4c0.2-0.4,0.4-0.7,0.6-1
				c0,0,0,0,0,0C29.4,36.8,29.3,37,29.2,37.1z M29.7,37.4c0,0.2-0.2,0.4-0.3,0.6C29.4,37.8,29.6,37.6,29.7,37.4z M29.4,37.1
				c0.1,0.2-0.1,0.3-0.2,0.4C29.2,37.4,29.3,37.2,29.4,37.1z M29.3,43.1c0.1-0.5,0.5-1,0.8-1.4C29.9,42.2,29.6,42.6,29.3,43.1z
				 M30.4,35.6c-0.1,0.1-0.1,0.3-0.2,0.3c0.2-0.4,0.4-0.8,0.7-1.3h0.1C30.8,35.1,30.6,35.3,30.4,35.6z M30.7,28.6
				c0.2-0.3,0.6-0.5,0.8-0.8c0.1,0-0.1,0.3-0.2,0.4C31.2,28.4,30.9,28.5,30.7,28.6z M31.9,28c0,0.4-0.4,0.6-0.7,0.7
				C31.3,28.4,31.6,28.2,31.9,28z M31,44.2c0-0.1,0.1-0.2,0.2-0.2C31.1,44.1,31.1,44.2,31,44.2z M31.2,43.7c0.2-0.2,0.5-0.5,0.8-0.6
				C31.9,43.4,31.5,43.5,31.2,43.7z M31.6,44.9c0-0.1,0.2-0.2,0.2-0.3C31.9,44.8,31.6,44.9,31.6,44.9z M33.1,29.5
				c-0.1,0.2-0.2,0.4-0.4,0.5C32.8,29.8,32.9,29.6,33.1,29.5z M32.1,43.1c0-0.2,0.2-0.2,0.3-0.3C32.4,42.9,32.3,43,32.1,43.1z
				 M32.4,35.1c0-0.1,0.1-0.3,0.1-0.4C32.6,34.8,32.5,35,32.4,35.1z M32.8,43.8c0.1,0,0.1,0,0.1-0.1C32.9,43.7,32.9,43.8,32.8,43.8z
				 M32.5,43.5c0-0.1,0.1-0.2,0.1-0.3c0.1-0.2,0.3-0.4,0.5-0.6c0,0,0,0,0,0C33.1,43.1,32.8,43.3,32.5,43.5z M33.7,25.8
				c-0.3,0.3-0.6,0.6-1,0.8c0.1-0.3,0.5-0.6,0.7-0.9c0.2-0.1,0.3-0.2,0.5-0.3C34,25.6,33.8,25.7,33.7,25.8z M34.1,28.9
				c0-0.1,0.1-0.2,0.2-0.3C34.3,28.7,34.2,28.8,34.1,28.9z M45.9,22.5c-0.1,0-0.2-0.1-0.3-0.2C45.7,22.3,45.9,22.4,45.9,22.5z
				 M41.9,22.6c0.2,0,0.4-0.1,0.7-0.1c0.1-0.1,0.2,0,0.3,0.1c-0.5,0.1-1,0.2-1.5,0.1C41.5,22.6,41.7,22.7,41.9,22.6z M42,23.6
				c-0.1,0.1-0.3,0.1-0.4,0.1C41.7,23.6,41.9,23.5,42,23.6z M40.8,23.2c-0.1,0.1-0.2,0.1-0.4,0.1C40.5,23.2,40.6,23.2,40.8,23.2z
				 M40.3,22.7c-0.1,0.2-0.5,0.1-0.7,0.1C39.7,22.7,40.1,22.7,40.3,22.7z M39.2,22.9c-0.3,0-0.7,0.2-1.1,0.1
				C38.4,22.8,38.9,22.6,39.2,22.9z M38.5,23.6c-0.3,0.2-0.6,0.3-0.9,0.4C37.9,23.8,38.2,23.7,38.5,23.6z M36.6,23.8
				c-0.3,0.2-0.7,0.3-1.1,0.4C35.7,24,36.1,23.8,36.6,23.8z M35.4,27.8c0-0.1,0.1-0.2,0.2-0.2C35.5,27.7,35.4,27.8,35.4,27.8z
				 M35.2,26.4c0.2-0.2,0.5-0.4,0.8-0.5C35.8,26,35.5,26.2,35.2,26.4z M39.4,43.3c-0.1,0.1-0.3,0.2-0.3,0.4c-0.1,0-0.1,0-0.2,0
				c0,0.1,0.1,0.2,0.1,0.3c-0.1,0-0.1-0.1-0.2,0c0.1,0.1,0.1,0.2,0.2,0.3c-0.4,0.1-0.8-0.2-1.1-0.4c-0.4-0.4-0.6-0.9-0.9-1.4
				c0-0.1,0.1-0.1,0-0.2c0-0.1-0.2-0.2-0.2-0.4c0,0,0-0.1,0-0.1c-0.1-0.2-0.2-0.2-0.2-0.6c-0.1-0.4-0.2-0.8-0.2-1.3c0,0,0-0.1,0-0.1
				c0-0.1-0.1-0.2-0.1-0.3c0-0.2,0.1-0.4,0-0.6c0-0.2-0.1-0.3,0-0.5c0-0.1,0.1-0.2,0.1-0.3c0-0.1,0-0.2,0-0.3c0-0.3,0.2-0.7,0.2-1
				c0-0.1-0.1-0.1-0.1-0.2c0.1-0.5,0.1-1,0.2-1.6c0.1-0.6,0.3-1.1,0.2-1.7c0-0.1,0.1-0.1,0.1-0.1c0-0.2,0.1-0.4,0.1-0.6
				c0-0.3-0.1-0.7,0.1-0.8c0-0.3,0.1-0.7,0.1-1c0-0.2,0.2-0.4,0.2-0.7c0.1-0.4,0-0.7,0.1-1.1c0,0,0.1-0.1,0.1,0
				c0.1-0.4,0.1-0.9,0.5-1c0.1,0.3,0,0.9,0.2,1.1c-0.1,1-0.2,2-0.4,2.9c0,0,0,0.1,0,0.1c-0.1,0.6-0.2,1.2-0.3,1.8
				c0,0.2-0.1,0.3-0.2,0.5c-0.1,0.4-0.1,0.8-0.1,1.3c-0.1,0.3-0.2,0.7-0.1,1.1c-0.1,0.2-0.1,0.8-0.1,1.2c0,0.1,0.1,0.3,0.1,0.4
				c0,0.2-0.1,0.4-0.1,0.6c0,0.1,0,0.4,0,0.6c0,0.3,0.2,0.6,0.3,1c0,0.1,0.1,0.2,0.2,0.3c0,0.1,0,0.1,0,0.2c0.2,0.5,0.5,0.8,0.7,1.3
				c0.2,0.1,0.3,0.3,0.4,0.5c0.3,0.3,0.8,0.5,1.1,0.8C39.7,43.2,39.5,43.4,39.4,43.3z M42.7,36.2c0,0.1-0.1,0.2-0.1,0.3
				c0,0.4,0,0.7-0.1,1c-0.1,0.5-0.3,0.8-0.5,1.2c-0.3,0.2-0.5,0.5-0.7,0.7c-0.2-0.1-0.5,0-0.8-0.2c-0.2-0.1-0.4-0.2-0.5-0.3
				c-0.2-0.1-0.3-0.4-0.4-0.7c-0.1-0.2-0.4-0.4-0.4-0.6c-0.1-0.3-0.2-0.7-0.2-1c0-0.4,0-0.7,0-1c0.3-0.3,0.3-0.7,0.4-1.1
				c0.1-0.4,0.4-0.7,0.6-0.9c0.2-0.1,0.4-0.3,0.6-0.4c0.2-0.2,0.5-0.5,0.8-0.4c0.2,0,0.2,0.2,0.3,0.3c0.2,0.2,0.4,0.2,0.5,0.4
				c0.1,0.1,0.1,0.3,0.1,0.4c0.1,0.4,0.4,0.9,0.4,1.4C42.7,35.6,42.7,35.9,42.7,36.2z M42.5,23.4c0.1-0.1,0.4-0.1,0.6-0.1
				c-0.1,0.1-0.2,0.1-0.3,0.2C42.7,23.5,42.6,23.4,42.5,23.4z M43.1,23.4c0.2-0.2,0.6-0.2,0.8-0.1C43.7,23.4,43.4,23.4,43.1,23.4z
				 M43.2,22.5c0-0.1,0.1-0.1,0.2-0.1c0.4,0,1,0.2,1.3,0.3C44.1,22.7,43.6,22.6,43.2,22.5z M44.9,22.7c0.1-0.1,0.2,0,0.3,0.1
				C45.1,22.9,45,22.7,44.9,22.7z M44.8,22c-0.2-0.1-0.5-0.1-0.6-0.3c0.4,0,0.9,0.2,1.2,0.4C45.2,22.2,45,22.1,44.8,22z M45.3,23.7
				c0.2-0.1,0.4,0,0.6,0C45.7,23.9,45.5,23.7,45.3,23.7z M45.4,22.5c0.2,0.1,0.5,0.2,0.6,0.4C45.7,22.9,45.5,22.7,45.4,22.5z
				 M47.4,23.3c0.1,0,0.3,0.1,0.3,0.2C47.6,23.5,47.4,23.4,47.4,23.3z M50.4,25.4c-0.2-0.2-0.4-0.4-0.5-0.7
				C50.2,24.8,50.4,25,50.4,25.4z M50.1,25.2c-0.1,0-0.1-0.1-0.1-0.2C50,25.1,50.1,25.2,50.1,25.2z M50.2,27.9
				c-0.2-0.1-0.3-0.2-0.4-0.5C49.9,27.5,50.2,27.6,50.2,27.9z M48.6,23.9c0.1,0.2,0.2,0.3,0.3,0.4c-0.3-0.3-0.7-0.5-0.9-0.8
				C48.3,23.4,48.4,23.7,48.6,23.9z M48.2,48.4c0.2-0.1,0.5-0.3,0.8-0.3C48.8,48.3,48.5,48.4,48.2,48.4z M49.5,24.6
				c0.1,0.1,0.2,0.2,0.3,0.4c-0.3-0.2-0.4-0.5-0.7-0.8C49.2,24.2,49.5,24.4,49.5,24.6z M49.9,28.4c-0.2-0.1-0.4-0.3-0.4-0.6
				C49.7,27.9,49.8,28.2,49.9,28.4z M50.1,29.2c-0.2-0.2-0.4-0.4-0.5-0.7C49.8,28.7,50,29,50.1,29.2z M50,29.3
				C50.1,29.3,50.1,29.3,50,29.3c0.2,0,0.2,0.1,0.2,0.3C50.1,29.6,50.2,29.4,50,29.3z M50.2,28.5c-0.1-0.1-0.1-0.2-0.1-0.3
				C50.2,28.2,50.3,28.4,50.2,28.5z M50.1,26.2c0.1,0,0.1,0.1,0.1,0.1C50.2,26.3,50.1,26.3,50.1,26.2z M50.4,30
				c-0.1,0-0.1-0.3-0.1-0.4C50.5,29.7,50.5,29.9,50.4,30z M50.5,29.3c-0.2-0.1,0-0.4,0-0.6C50.6,28.8,50.5,29.1,50.5,29.3z
				 M50.6,28.6c-0.1-0.1-0.1-0.4,0-0.6C50.6,28.1,50.5,28.4,50.6,28.6z M50.8,28.9c0.1,0,0.1,0.2,0,0.3C50.8,29.1,50.8,29,50.8,28.9
				z M51,45.7c0.1,0.1,0.1,0.4,0.1,0.6C51.1,46.1,51,45.9,51,45.7z"/>
			<path fill="#231F20" d="M8,16.6C8,16.3,8.2,16.2,8.4,16c0.1-0.3,0.2-0.6,0.3-0.8c0.1-0.7,0.4-1.4,0.2-2.2c0-0.2-0.2-0.4-0.2-0.6
				c-0.1-0.2-0.1-0.5-0.2-0.6C8.3,11.3,8,11.2,7.8,11c-0.2-0.2-0.3-0.5-0.6-0.5c-0.1,0.2,0.1,0.3,0.1,0.4c0.1,0.4,0.1,0.9,0.1,1.2
				c0,0.1-0.1,0.3-0.1,0.4c0,0.3,0.1,0.6,0.1,0.9c0,0.7-0.1,1.1-0.1,1.6c0,0.2,0,0.4,0,0.7c0,0.2-0.1,0.5-0.1,0.7c0,0.3,0,0.7,0,1
				c0,0,0,0,0,0C7.4,17.2,7.7,16.9,8,16.6z"/>
			<path fill="#231F20" d="M15.8,12.3c0.1-0.5,0.1-1.4-0.1-1.8c-0.1,0-0.1,0-0.1,0c-0.2,0.2-0.1,0.4-0.2,0.7c0,0.2-0.1,0.3-0.1,0.4
				c-0.1,0.4,0,0.9-0.1,1.3c-0.1,0.5-0.2,1-0.3,1.4c0.3,0,0.7-0.1,1-0.2C15.9,13.4,15.8,13,15.8,12.3z"/>
			<path fill="#231F20" d="M2.2,26.6c0.2,0.5,0,1.3,0.1,1.9c0.4,1.6,2.8,1.1,4.5,1c0.6-0.1,1.2-0.1,1.8-0.2c0.6-0.1,1.2-0.1,1.9-0.1
				c1.2,0.1,2.2,0.4,3.1,0.8c6.8,3.4,10.3,3.9,10.7,3.5c-0.2-0.3-1.9-1.9-2.8-3.6c-0.8-1.6-1.6-3.5-1.6-5.9c0-1.4,0.4-2.5,0.8-3.6
				c0.4-1,1-1.9,1.5-2.9c0.8-0.2,0.8-1.2,1.2-2c0.5-1.2,1.2-2.1,1.5-3.5c0.2-0.7,0.2-1.4,0.3-2.2c0-0.8,0.1-1.6,0.1-2.4
				c0.1-1.6-0.3-3-0.9-4.1c-0.3-0.5-0.6-1.1-1-1.5c-0.9-0.8-2.7-1.3-4.1-1.5C17.7,0.1,15.8-0.1,14,0c-1.5,0.1-3,0.1-4.3,0.5
				C8.4,0.8,7.2,1.1,6.1,1.7c-1,0.5-2,1.1-3,1.8C2.7,3.8,2.3,4.2,2,4.7C1.6,5.3,1.2,6.1,1.2,7C0.8,7.1,0.9,7.6,0.9,8.1
				c0,0.3-0.1,0.7,0,0.9c0,0.2,0.3,0.4,0.3,0.6c0,0.1,0,0.3,0,0.4c0,0.1,0,0.3,0,0.4c0,0.9,0.3,1.7,0.3,2.5c-0.1,0.8-0.4,1.5,0,2.2
				c0.1,0.2,0.3,0.3,0.4,0.5c0.4,1.1-0.1,2.4-0.5,3c-0.4,0.7-1,1.2-1.1,1.9c-0.2,1,0.8,1.5,1.7,1.6c-0.1,0.2-0.3,0.3-0.4,0.5
				c-0.1,0.1-0.4,0.4-0.4,0.6c0,0.1,0.1,0.3,0.1,0.4c0.1,0.4,0.3,0.6,0.5,0.7c-0.3,0.3-0.3,1-0.1,1.4c0.1,0.2,0.3,0.2,0.4,0.4
				C2,26.2,2.1,26.4,2.2,26.6z M13.3,17c0.3-0.5,0.2-1.4,0.3-2.2c0-0.3,0.2-0.5,0.2-0.8c0-0.1,0-0.2,0-0.3c0.1-0.4,0.1-0.8,0.2-1.2
				c0.1-0.6,0.2-1.2,0.4-1.8c0.1-0.2,0.2-0.4,0.2-0.6c0.1-0.4,0.1-0.7,0.2-1c0.1-0.3,0.2-0.6,0.3-0.9c0.1-0.1,0.1-0.1,0.2-0.2
				c0.2,0.2,0.5,0.2,0.9,0.2c0.1,0.5,0.1,1,0.2,1.5c0.1,0.7,0.3,1.3,0.2,2.1c0,0.4-0.1,0.8-0.2,1.1c0,0.1-0.2,0.2-0.2,0.3
				c-0.1,0.3,0.1,0.6,0,0.8c0.2,0.3,0.6,0.2,0.8,0.4c-0.2,0.2-0.6,0.3-0.8,0.4c0.2,0.7-0.1,1.5-0.1,2.2c0,0.3,0.1,0.9,0.1,1.2
				c0.1,0.3,0.1,0.7,0.1,1.1c0.1,1.3,0,2.8,0,4c0,1.3,0.1,2.6-0.2,3.8c0,0.2-0.1,0.6-0.2,0.6c-0.2,0-0.2-0.6-0.2-0.7
				c-0.2-1.2-0.3-2.6-0.2-3.9c0-0.4,0.1-0.8,0.1-1.2c0-0.5-0.1-1-0.1-1.5c0-1.3,0-2.6,0.1-3.8c0-0.3,0-0.6,0-0.9
				c0-0.2,0.1-0.4,0-0.7c-0.4,0.1-0.8,0.2-1.1,0.3c-0.1,0.4-0.1,0.9-0.1,1.3c0,0.2-0.1,0.4-0.2,0.6c-0.1,0.4-0.2,0.9-0.3,1.2
				c0,0.1-0.1,0.1-0.2,0.2c-0.1,0.1-0.1,0.3-0.3,0.4c-0.1,0-0.3,0.1-0.4,0c0.1-0.3,0-0.5-0.2-0.6c0.1-0.3,0.3-1,0.5-1.4
				C13.4,17.1,13.3,17.1,13.3,17z M11.4,12.1c0.3-0.2,0.9-0.5,1.1,0c-0.1,0.2,0,0.5,0,0.7c0,0.3-0.2,0.6-0.4,0.7
				c-0.2,0.1-0.4,0.1-0.7,0.2C10.9,13.4,11,12.5,11.4,12.1z M10.5,19.3c0-0.1,0-0.2,0-0.4c0-0.2,0-0.5,0-0.7c0-0.2,0.2-0.4,0.2-0.7
				c0-0.1,0-0.2,0-0.3c0-0.2,0.2-0.4,0.2-0.6c0.1,0,0.1-0.1,0.2-0.2c0.1-0.5,0.5-0.9,0.7-1.4c0-0.1,0.2-0.2,0.2-0.2h0
				c0.2,0,0.1,0.4,0,0.6c-0.1,0.5-0.1,1.2-0.1,1.7c0,0.2-0.1,0.4-0.1,0.6c0,0.1,0,0.3,0,0.4c0,0.3-0.2,1-0.1,1.3c0,0.2,0,0.2,0,0.3
				c-0.3,0.8-0.3,1.9-0.3,2.9c-0.2-0.1-0.3,0.2-0.6,0.2c-0.1,0-0.2-0.1-0.3-0.2c0-0.3-0.1-0.6-0.1-0.9c0-0.3,0-0.6,0-0.9
				C10.5,20.3,10.4,19.8,10.5,19.3z M6,18.4c0.1-0.5,0.4-1,0.4-1.7c0-0.3,0-0.6,0-0.9c0-0.3,0.1-0.6,0.1-0.8c0-0.7,0-1.5,0-2.2
				c0-0.3,0.1-0.6,0.1-1c0-0.5-0.1-1.1-0.1-1.6c0-0.3-0.1-0.6,0-0.8c0.5,0.3,1,0.7,1.4,1c0.5,0.4,1.1,0.8,1.4,1.4
				c0.1,0.3,0.2,0.5,0.3,0.9c0.2,0.2,0.2,0.8,0.2,1.3c0,0.5-0.2,1-0.2,1.5c0,0.1,0,0.2,0,0.3c0,0.2-0.2,0.4-0.4,0.6
				C9,16.7,8.8,16.9,8.7,17c-0.2,0.3-0.3,0.6-0.5,0.9C8.2,18,8,18.1,8,18.2c-0.1,0.2-0.1,0.3-0.2,0.5c-0.1,0.2-0.2,0.4-0.3,0.6
				c-0.1,0.2-0.1,0.4-0.2,0.6C7.2,20,7,20.2,6.9,20.4c-0.1,0.2-0.2,0.4-0.5,0.4c-0.1-0.2,0-0.4-0.1-0.7c-0.1-0.1-0.2-0.2-0.2-0.3
				c0-0.1,0-0.2,0-0.3c0-0.2-0.1-0.3-0.1-0.5c0-0.1,0-0.2,0.1-0.3C6,18.7,6,18.5,6,18.4z"/>
			<path fill="#FFFFFF" d="M13.1,55.7c0,0.1-0.1,0.2,0,0.2c0.1-0.1,0.1-0.2,0.1-0.3c0,0,0-0.1,0-0.1C13.1,55.5,13.1,55.6,13.1,55.7z
				"/>
			<path fill="#FFFFFF" d="M10,61.3c-0.1,0-0.2,0-0.2,0.1C10,61.4,10,61.4,10,61.3z"/>
			<path fill="#FFFFFF" d="M13.1,55.4c0,0.1,0,0.2-0.1,0.2C13.1,55.6,13.1,55.5,13.1,55.4c0,0,0,0.1,0,0.1
				C13.1,55.5,13.1,55.5,13.1,55.4z"/>
			<path fill="#FFFFFF" d="M9.8,61.4c0.1,0,0.2,0,0.2-0.1c0,0,0,0,0,0C10,61.4,10,61.5,9.8,61.4z"/>
			<path fill="#FFFFFF" d="M13,56.1c0,0.1,0,0.1,0,0.2C13,56.2,13,56.1,13,56.1C13,56,13,55.9,13,55.9C13,55.9,13,56,13,56.1z"/>
			<path fill="#FFFFFF" d="M13,56.3c0-0.1,0-0.2,0.1-0.3C13,56.1,13,56.2,13,56.3L13,56.3z"/>
			<path fill="#FFFFFF" d="M13,55.9c0,0-0.1,0.1-0.1,0.2C13,56,13,55.9,13,55.9L13,55.9z"/>
			<path fill="#FFFFFF" d="M12,58.3c-0.1,0-0.1,0.1-0.1,0.2c0,0,0,0.1,0,0.1c0,0,0,0,0,0C12,58.6,12,58.4,12,58.3z"/>
			<path fill="#FFFFFF" d="M12,58.3c-0.1,0-0.1,0.1-0.1,0.2C11.9,58.4,11.9,58.3,12,58.3L12,58.3z"/>
			<path fill="#FFFFFF" d="M11.9,58.6C11.9,58.6,11.9,58.6,11.9,58.6C11.9,58.6,11.9,58.6,11.9,58.6L11.9,58.6z"/>
			<path fill="#FFFFFF" d="M11.7,59.1c0,0,0.1-0.1,0.1-0.1C11.7,58.9,11.6,59.1,11.7,59.1z"/>
		</g>
	</g>
</g>
<g id="Grid" display="none">
</g>
</svg>
