<?xml version="1.0" encoding="utf-8"?>
<!-- Generator: Adobe Illustrator 21.0.0, SVG Export Plug-In . SVG Version: 6.00 Build 0)  -->
<svg version="1.1" xmlns="http://www.w3.org/2000/svg" xmlns:xlink="http://www.w3.org/1999/xlink" x="0px" y="0px"
	 viewBox="0 0 27.7 19.1" style="enable-background:new 0 0 27.7 19.1;" xml:space="preserve">
<style type="text/css">
	.st0{fill:#4F4F4F;}
	.st1{fill:#303030;}
	.st2{fill:#6D6D6D;}
	.st3{fill:none;stroke:#303030;stroke-miterlimit:10;}
	.st4{fill:#3C3C3C;}
	.st5{fill:#FAFAFA;}
	.st6{fill:#F7F7F7;}
	.st7{fill:#E0E0E0;}
	.st8{fill:#FFFFFF;stroke:#F2F2F2;stroke-miterlimit:10;}
	.st9{fill:none;}
	.st10{fill:#231F20;}
	.st11{fill:#FFFFFF;}
	.st12{fill:#A6DDC4;}
	.st13{fill:#383838;}
	.st14{fill:none;stroke:#FF4848;stroke-miterlimit:10;}
	.st15{fill:#42A842;}
	.st16{fill:none;stroke:#4C4C4C;stroke-width:2;stroke-miterlimit:10;}
	.st17{fill:#CECECE;}
	.st18{fill:none;stroke:#F4F4F4;stroke-miterlimit:10;}
	.st19{fill:#F4F4F4;stroke:#F4F4F4;stroke-miterlimit:10;}
	.st20{fill:none;stroke:#4C4C4C;stroke-width:2.5;stroke-miterlimit:10;}
	.st21{fill:#4C4C4C;stroke:#4C4C4C;stroke-width:0.5;stroke-miterlimit:10;}
	.st22{fill:none;stroke:#FF4893;stroke-miterlimit:10;}
	.st23{fill:#FF4893;}
	.st24{fill:#E2E2E2;}
	.st25{fill:#F9F9F9;stroke:#848484;stroke-miterlimit:10;}
	.st26{fill:#848484;}
	.st27{fill:none;stroke:#6BC96B;stroke-width:2;stroke-miterlimit:10;}
	.st28{fill:#8C8C8C;}
	.st29{fill:none;stroke:#4C4C4C;stroke-width:3;stroke-miterlimit:10;}
	.st30{fill:none;stroke:#4F4F4F;stroke-width:2;stroke-miterlimit:10;}
	.st31{fill:#A5A5A5;}
	.st32{fill:none;stroke:#3C3C3C;stroke-miterlimit:10;}
	.st33{fill:none;stroke:#AFAFAF;stroke-miterlimit:10;}
	.st34{fill:#EAEAEA;}
	.st35{fill:none;stroke:#FF4848;stroke-width:0.75;stroke-miterlimit:10;}
	.st36{fill:none;stroke:#D3D3D3;stroke-miterlimit:10;}
	.st37{fill:#BFBFBF;}
	.st38{fill:#EFEFEF;}
	.st39{fill:#FCFCFC;}
	.st40{fill:none;stroke:#42A842;stroke-miterlimit:10;}
	.st41{fill:#B5B5B5;}
	.st42{clip-path:url(#SVGID_2_);}
	.st43{fill-rule:evenodd;clip-rule:evenodd;fill:#848484;}
	.st44{fill:none;stroke:#D1D1D1;stroke-miterlimit:10;}
	.st45{fill:#F2F2F2;}
	.st46{fill:#A0A0A0;}
	.st47{display:none;}
	.st48{display:inline;}
	.st49{display:inline;opacity:0.26;}
	.st50{display:inline;opacity:0.41;}
</style>
<g id="Layer_3">
</g>
<g id="Layer_1">
	<g>
		<rect x="-1156" y="-63.3" class="st11" width="1279.6" height="211.4"/>
		<path class="st26" d="M27.7,8.8c-1,0.2-2.4,0-3.1-0.3c1.6-0.1,2.6-0.8,3-1.8c-0.6,0.3-2.3,0.7-3.3,0.4c-0.1-0.2-0.1-0.4-0.2-0.6
			c-0.7-2.7-3.2-4.9-5.9-4.6c0.2-0.1,0.4-0.2,0.6-0.2c0.3-0.1,2-0.4,1.7-1C20.5,0.1,18.4,1,18,1.1c0.5-0.2,1.4-0.5,1.5-1.1
			c-0.8,0.1-1.6,0.5-2.2,1c0.2-0.2,0.4-0.5,0.4-0.8c-2.1,1.4-3.3,4.1-4.3,6.7c-0.8-0.8-1.5-1.4-2.1-1.7C9.5,4.3,7.4,3.3,4.1,2.1
			C4,3.2,4.7,4.6,6.5,5.6C6.1,5.5,5.4,5.6,4.8,5.8C5,7,5.8,8,7.9,8.5C6.9,8.6,6.5,8.8,6,9.3c0.4,0.9,1.5,1.9,3.4,1.7
			c-2.1,0.9-0.9,2.6,0.9,2.4c-3,3.1-7.6,2.8-10.3,0.3c7,9.5,22.2,5.6,24.4-3.5C26.1,10.1,27.1,9.5,27.7,8.8z"/>
	</g>
</g>
<g id="Grid" class="st47">
</g>
</svg>
